<mxfile host="Electron" agent="Mozilla/5.0 (Windows NT 10.0; Win64; x64) AppleWebKit/537.36 (KHTML, like Gecko) draw.io/25.0.1 Chrome/128.0.6613.186 Electron/32.2.6 Safari/537.36" version="25.0.1">
  <diagram name="Page-1" id="JKNUVQAxmP9uTkI03yyg">
    <mxGraphModel dx="557" dy="333" grid="1" gridSize="10" guides="1" tooltips="1" connect="1" arrows="1" fold="1" page="1" pageScale="1" pageWidth="850" pageHeight="1100" math="0" shadow="0">
      <root>
        <mxCell id="0" />
        <mxCell id="1" parent="0" />
        <mxCell id="XaIL9JHg4FneOxSuvQ2j-3" value="&lt;font style=&quot;font-size: 28px;&quot;&gt;ممرض جناح&lt;br&gt;&lt;/font&gt;" style="rounded=1;whiteSpace=wrap;html=1;fillColor=#dae8fc;strokeColor=#6c8ebf;" vertex="1" parent="1">
          <mxGeometry x="590" y="130" width="100" height="250" as="geometry" />
        </mxCell>
        <mxCell id="XaIL9JHg4FneOxSuvQ2j-4" value="&lt;font style=&quot;font-size: 28px;&quot;&gt;نظام&amp;nbsp;&lt;br&gt;إدراة&amp;nbsp;&lt;br&gt;مشفى&lt;/font&gt;" style="rounded=1;whiteSpace=wrap;html=1;fillColor=#ffe6cc;strokeColor=#d79b00;" vertex="1" parent="1">
          <mxGeometry x="290" y="130" width="100" height="250" as="geometry" />
        </mxCell>
        <mxCell id="XaIL9JHg4FneOxSuvQ2j-7" value="" style="endArrow=classic;html=1;rounded=0;exitX=-0.009;exitY=0.121;exitDx=0;exitDy=0;exitPerimeter=0;" edge="1" parent="1">
          <mxGeometry width="50" height="50" relative="1" as="geometry">
            <mxPoint x="589.1" y="150.25" as="sourcePoint" />
            <mxPoint x="390" y="150" as="targetPoint" />
          </mxGeometry>
        </mxCell>
        <mxCell id="XaIL9JHg4FneOxSuvQ2j-11" value="" style="endArrow=classic;html=1;rounded=0;exitX=-0.009;exitY=0.121;exitDx=0;exitDy=0;exitPerimeter=0;" edge="1" parent="1">
          <mxGeometry width="50" height="50" relative="1" as="geometry">
            <mxPoint x="589" y="180" as="sourcePoint" />
            <mxPoint x="390" y="180" as="targetPoint" />
          </mxGeometry>
        </mxCell>
        <mxCell id="XaIL9JHg4FneOxSuvQ2j-12" value="" style="endArrow=classic;html=1;rounded=0;exitX=-0.009;exitY=0.121;exitDx=0;exitDy=0;exitPerimeter=0;" edge="1" parent="1">
          <mxGeometry width="50" height="50" relative="1" as="geometry">
            <mxPoint x="589" y="212.81" as="sourcePoint" />
            <mxPoint x="390" y="212.81" as="targetPoint" />
          </mxGeometry>
        </mxCell>
        <mxCell id="XaIL9JHg4FneOxSuvQ2j-14" value="تسجيل الدخول" style="text;html=1;align=center;verticalAlign=middle;resizable=0;points=[];autosize=1;strokeColor=none;fillColor=none;" vertex="1" parent="1">
          <mxGeometry x="450" y="130" width="80" height="30" as="geometry" />
        </mxCell>
        <mxCell id="XaIL9JHg4FneOxSuvQ2j-15" value="إدخال نتائج الإجراءات" style="text;html=1;align=center;verticalAlign=middle;resizable=0;points=[];autosize=1;strokeColor=none;fillColor=none;" vertex="1" parent="1">
          <mxGeometry x="435" y="160" width="110" height="30" as="geometry" />
        </mxCell>
        <mxCell id="XaIL9JHg4FneOxSuvQ2j-17" value="إبلاغ الأطباء عن الحالات الطارئة" style="text;html=1;align=center;verticalAlign=middle;resizable=0;points=[];autosize=1;strokeColor=none;fillColor=none;" vertex="1" parent="1">
          <mxGeometry x="415" y="190" width="150" height="30" as="geometry" />
        </mxCell>
        <mxCell id="XaIL9JHg4FneOxSuvQ2j-21" value="" style="endArrow=classic;html=1;rounded=0;exitX=0.997;exitY=0.521;exitDx=0;exitDy=0;exitPerimeter=0;" edge="1" parent="1">
          <mxGeometry width="50" height="50" relative="1" as="geometry">
            <mxPoint x="389.99999999999994" y="360" as="sourcePoint" />
            <mxPoint x="590" y="360" as="targetPoint" />
          </mxGeometry>
        </mxCell>
        <mxCell id="XaIL9JHg4FneOxSuvQ2j-29" value="" style="endArrow=classic;html=1;rounded=0;exitX=0.997;exitY=0.521;exitDx=0;exitDy=0;exitPerimeter=0;entryX=0.008;entryY=0.522;entryDx=0;entryDy=0;entryPerimeter=0;" edge="1" parent="1">
          <mxGeometry width="50" height="50" relative="1" as="geometry">
            <mxPoint x="388.8999999999999" y="328" as="sourcePoint" />
            <mxPoint x="590" y="328.25000000000006" as="targetPoint" />
          </mxGeometry>
        </mxCell>
        <mxCell id="XaIL9JHg4FneOxSuvQ2j-33" value="تقارير الفحوصات الطبية" style="text;html=1;align=center;verticalAlign=middle;resizable=0;points=[];autosize=1;strokeColor=none;fillColor=none;" vertex="1" parent="1">
          <mxGeometry x="430" y="340" width="120" height="30" as="geometry" />
        </mxCell>
        <mxCell id="XaIL9JHg4FneOxSuvQ2j-55" value="حالة المريض الصحية" style="text;html=1;align=center;verticalAlign=middle;resizable=0;points=[];autosize=1;strokeColor=none;fillColor=none;" vertex="1" parent="1">
          <mxGeometry x="435" y="308" width="110" height="30" as="geometry" />
        </mxCell>
        <mxCell id="XaIL9JHg4FneOxSuvQ2j-61" value="" style="endArrow=classic;html=1;rounded=0;exitX=-0.009;exitY=0.121;exitDx=0;exitDy=0;exitPerimeter=0;" edge="1" parent="1">
          <mxGeometry width="50" height="50" relative="1" as="geometry">
            <mxPoint x="589" y="240" as="sourcePoint" />
            <mxPoint x="390" y="240" as="targetPoint" />
          </mxGeometry>
        </mxCell>
        <mxCell id="XaIL9JHg4FneOxSuvQ2j-62" value="إدارة غرف المرضى" style="text;html=1;align=center;verticalAlign=middle;resizable=0;points=[];autosize=1;strokeColor=none;fillColor=none;" vertex="1" parent="1">
          <mxGeometry x="440" y="218" width="100" height="30" as="geometry" />
        </mxCell>
        <mxCell id="XaIL9JHg4FneOxSuvQ2j-63" value="" style="endArrow=classic;html=1;rounded=0;exitX=-0.009;exitY=0.121;exitDx=0;exitDy=0;exitPerimeter=0;" edge="1" parent="1">
          <mxGeometry width="50" height="50" relative="1" as="geometry">
            <mxPoint x="589" y="270" as="sourcePoint" />
            <mxPoint x="390" y="270" as="targetPoint" />
          </mxGeometry>
        </mxCell>
        <mxCell id="XaIL9JHg4FneOxSuvQ2j-64" value="إدخال معلومات الحالة الصحية للمرضى" style="text;html=1;align=center;verticalAlign=middle;resizable=0;points=[];autosize=1;strokeColor=none;fillColor=none;" vertex="1" parent="1">
          <mxGeometry x="415" y="248" width="170" height="30" as="geometry" />
        </mxCell>
      </root>
    </mxGraphModel>
  </diagram>
</mxfile>
